<mxfile modified="2023-12-10T03:01:03.754Z" host="Electron" agent="5.0 (Windows NT 10.0; Win64; x64) AppleWebKit/537.36 (KHTML, like Gecko) draw.io/20.8.16 Chrome/106.0.5249.199 Electron/21.4.0 Safari/537.36" etag="Dwqf5wh06KrNCAObhOih" compressed="false" version="20.8.16" type="device">
  <diagram id="4TcdrXX-AY0KsejnfXiS" name="ISO-25010 (Detailed)">
    <mxGraphModel dx="1036" dy="623" grid="1" gridSize="10" guides="1" tooltips="1" connect="1" arrows="1" fold="1" page="1" pageScale="1" pageWidth="827" pageHeight="1169" math="0" shadow="0">
      <root>
        <mxCell id="_cMEJkciD_aqV913pfZD-0" />
        <mxCell id="_cMEJkciD_aqV913pfZD-1" parent="_cMEJkciD_aqV913pfZD-0" />
        <mxCell id="cZ0vHt0oVeqG0NVhwaIE-133" value="" style="rounded=0;whiteSpace=wrap;html=1;container=1;recursiveResize=0;collapsible=0;" parent="_cMEJkciD_aqV913pfZD-1" vertex="1">
          <mxGeometry x="10" y="520" width="80" height="160" as="geometry" />
        </mxCell>
        <mxCell id="cZ0vHt0oVeqG0NVhwaIE-130" value="Completeness" style="rounded=0;whiteSpace=wrap;html=1;strokeColor=none;fontSize=10;fillColor=none;" parent="cZ0vHt0oVeqG0NVhwaIE-133" vertex="1">
          <mxGeometry x="0.040000000000020464" y="40" width="80" height="20" as="geometry" />
        </mxCell>
        <mxCell id="cZ0vHt0oVeqG0NVhwaIE-131" value="Correctness" style="rounded=0;whiteSpace=wrap;html=1;strokeColor=none;fontSize=10;fillColor=none;" parent="cZ0vHt0oVeqG0NVhwaIE-133" vertex="1">
          <mxGeometry x="0.040000000000020464" y="60" width="80" height="20" as="geometry" />
        </mxCell>
        <mxCell id="cZ0vHt0oVeqG0NVhwaIE-132" value="Appropriateness" style="rounded=0;whiteSpace=wrap;html=1;strokeColor=none;fontSize=10;fillColor=none;" parent="cZ0vHt0oVeqG0NVhwaIE-133" vertex="1">
          <mxGeometry x="0.040000000000020464" y="80" width="80" height="20" as="geometry" />
        </mxCell>
        <mxCell id="cZ0vHt0oVeqG0NVhwaIE-0" value="Functionality" style="rounded=0;whiteSpace=wrap;html=1;fontStyle=1" parent="cZ0vHt0oVeqG0NVhwaIE-133" vertex="1">
          <mxGeometry width="80" height="34" as="geometry" />
        </mxCell>
        <mxCell id="cZ0vHt0oVeqG0NVhwaIE-141" value="" style="rounded=0;whiteSpace=wrap;html=1;container=1;recursiveResize=0;collapsible=0;" parent="_cMEJkciD_aqV913pfZD-1" vertex="1">
          <mxGeometry x="100" y="520" width="80" height="160" as="geometry" />
        </mxCell>
        <mxCell id="cZ0vHt0oVeqG0NVhwaIE-142" value="Time behaviour" style="rounded=0;whiteSpace=wrap;html=1;strokeColor=none;fontSize=10;fillColor=none;" parent="cZ0vHt0oVeqG0NVhwaIE-141" vertex="1">
          <mxGeometry x="0.040000000000020464" y="40" width="80" height="20" as="geometry" />
        </mxCell>
        <mxCell id="cZ0vHt0oVeqG0NVhwaIE-143" value="Resource Utilisation" style="rounded=0;whiteSpace=wrap;html=1;strokeColor=none;fontSize=10;fillColor=none;" parent="cZ0vHt0oVeqG0NVhwaIE-141" vertex="1">
          <mxGeometry x="0.040000000000020464" y="60" width="80" height="20" as="geometry" />
        </mxCell>
        <mxCell id="cZ0vHt0oVeqG0NVhwaIE-144" value="Capacity" style="rounded=0;whiteSpace=wrap;html=1;strokeColor=none;fontSize=10;fillColor=none;" parent="cZ0vHt0oVeqG0NVhwaIE-141" vertex="1">
          <mxGeometry x="0.040000000000020464" y="80" width="80" height="20" as="geometry" />
        </mxCell>
        <mxCell id="cZ0vHt0oVeqG0NVhwaIE-145" value="Performance Efficiency" style="rounded=0;whiteSpace=wrap;html=1;fontStyle=1" parent="cZ0vHt0oVeqG0NVhwaIE-141" vertex="1">
          <mxGeometry width="80" height="34" as="geometry" />
        </mxCell>
        <mxCell id="cZ0vHt0oVeqG0NVhwaIE-146" value="" style="rounded=0;whiteSpace=wrap;html=1;container=1;recursiveResize=0;collapsible=0;" parent="_cMEJkciD_aqV913pfZD-1" vertex="1">
          <mxGeometry x="190" y="520" width="80" height="160" as="geometry" />
        </mxCell>
        <mxCell id="cZ0vHt0oVeqG0NVhwaIE-147" value="Co-existence" style="rounded=0;whiteSpace=wrap;html=1;strokeColor=none;fontSize=10;fillColor=none;" parent="cZ0vHt0oVeqG0NVhwaIE-146" vertex="1">
          <mxGeometry x="0.040000000000020464" y="40" width="80" height="20" as="geometry" />
        </mxCell>
        <mxCell id="cZ0vHt0oVeqG0NVhwaIE-148" value="Interoperability" style="rounded=0;whiteSpace=wrap;html=1;strokeColor=none;fontSize=10;fillColor=none;" parent="cZ0vHt0oVeqG0NVhwaIE-146" vertex="1">
          <mxGeometry x="0.040000000000020464" y="60" width="80" height="20" as="geometry" />
        </mxCell>
        <mxCell id="cZ0vHt0oVeqG0NVhwaIE-150" value="Compatibility" style="rounded=0;whiteSpace=wrap;html=1;fontStyle=1" parent="cZ0vHt0oVeqG0NVhwaIE-146" vertex="1">
          <mxGeometry width="80" height="34" as="geometry" />
        </mxCell>
        <mxCell id="cZ0vHt0oVeqG0NVhwaIE-151" value="" style="rounded=0;whiteSpace=wrap;html=1;container=1;recursiveResize=0;collapsible=0;" parent="_cMEJkciD_aqV913pfZD-1" vertex="1">
          <mxGeometry x="280" y="520" width="80" height="160" as="geometry" />
        </mxCell>
        <mxCell id="cZ0vHt0oVeqG0NVhwaIE-152" value="Recognisability" style="rounded=0;whiteSpace=wrap;html=1;strokeColor=none;fontSize=10;fillColor=none;" parent="cZ0vHt0oVeqG0NVhwaIE-151" vertex="1">
          <mxGeometry x="0.040000000000020464" y="40" width="80" height="20" as="geometry" />
        </mxCell>
        <mxCell id="cZ0vHt0oVeqG0NVhwaIE-153" value="Learnability" style="rounded=0;whiteSpace=wrap;html=1;strokeColor=none;fontSize=10;fillColor=none;" parent="cZ0vHt0oVeqG0NVhwaIE-151" vertex="1">
          <mxGeometry x="0.040000000000020464" y="60" width="80" height="20" as="geometry" />
        </mxCell>
        <mxCell id="cZ0vHt0oVeqG0NVhwaIE-154" value="Usability" style="rounded=0;whiteSpace=wrap;html=1;fontStyle=1" parent="cZ0vHt0oVeqG0NVhwaIE-151" vertex="1">
          <mxGeometry width="80" height="34" as="geometry" />
        </mxCell>
        <mxCell id="cZ0vHt0oVeqG0NVhwaIE-155" value="Operability" style="rounded=0;whiteSpace=wrap;html=1;strokeColor=none;fontSize=10;fillColor=none;" parent="_cMEJkciD_aqV913pfZD-1" vertex="1">
          <mxGeometry x="280.04" y="600" width="80" height="20" as="geometry" />
        </mxCell>
        <mxCell id="cZ0vHt0oVeqG0NVhwaIE-156" value="Aesthetics" style="rounded=0;whiteSpace=wrap;html=1;strokeColor=none;fontSize=10;fillColor=none;" parent="_cMEJkciD_aqV913pfZD-1" vertex="1">
          <mxGeometry x="280.04" y="620" width="80" height="20" as="geometry" />
        </mxCell>
        <mxCell id="cZ0vHt0oVeqG0NVhwaIE-157" value="Accessibilty" style="rounded=0;whiteSpace=wrap;html=1;strokeColor=none;fontSize=10;fillColor=none;" parent="_cMEJkciD_aqV913pfZD-1" vertex="1">
          <mxGeometry x="280.04" y="640" width="80" height="20" as="geometry" />
        </mxCell>
        <mxCell id="cZ0vHt0oVeqG0NVhwaIE-158" value="" style="rounded=0;whiteSpace=wrap;html=1;container=1;recursiveResize=0;collapsible=0;" parent="_cMEJkciD_aqV913pfZD-1" vertex="1">
          <mxGeometry x="370" y="520" width="80" height="160" as="geometry" />
        </mxCell>
        <mxCell id="cZ0vHt0oVeqG0NVhwaIE-159" value="Maturity" style="rounded=0;whiteSpace=wrap;html=1;strokeColor=none;fontSize=10;fillColor=none;" parent="cZ0vHt0oVeqG0NVhwaIE-158" vertex="1">
          <mxGeometry x="0.040000000000020464" y="40" width="80" height="20" as="geometry" />
        </mxCell>
        <mxCell id="cZ0vHt0oVeqG0NVhwaIE-160" value="Availability" style="rounded=0;whiteSpace=wrap;html=1;strokeColor=none;fontSize=10;fillColor=none;" parent="cZ0vHt0oVeqG0NVhwaIE-158" vertex="1">
          <mxGeometry x="0.040000000000020464" y="60" width="80" height="20" as="geometry" />
        </mxCell>
        <mxCell id="cZ0vHt0oVeqG0NVhwaIE-161" value="Reliability" style="rounded=0;whiteSpace=wrap;html=1;fontStyle=1" parent="cZ0vHt0oVeqG0NVhwaIE-158" vertex="1">
          <mxGeometry width="80" height="34" as="geometry" />
        </mxCell>
        <mxCell id="cZ0vHt0oVeqG0NVhwaIE-166" value="Fault Tolerance" style="rounded=0;whiteSpace=wrap;html=1;strokeColor=none;fontSize=10;fillColor=none;" parent="_cMEJkciD_aqV913pfZD-1" vertex="1">
          <mxGeometry x="370.04" y="600" width="80" height="20" as="geometry" />
        </mxCell>
        <mxCell id="cZ0vHt0oVeqG0NVhwaIE-167" value="Recoverability" style="rounded=0;whiteSpace=wrap;html=1;strokeColor=none;fontSize=10;fillColor=none;" parent="_cMEJkciD_aqV913pfZD-1" vertex="1">
          <mxGeometry x="370.04" y="620" width="80" height="20" as="geometry" />
        </mxCell>
        <mxCell id="cZ0vHt0oVeqG0NVhwaIE-168" value="" style="rounded=0;whiteSpace=wrap;html=1;container=1;recursiveResize=0;collapsible=0;" parent="_cMEJkciD_aqV913pfZD-1" vertex="1">
          <mxGeometry x="460" y="520" width="80" height="160" as="geometry" />
        </mxCell>
        <mxCell id="cZ0vHt0oVeqG0NVhwaIE-169" value="Confidentiality" style="rounded=0;whiteSpace=wrap;html=1;strokeColor=none;fontSize=10;fillColor=none;" parent="cZ0vHt0oVeqG0NVhwaIE-168" vertex="1">
          <mxGeometry x="0.040000000000020464" y="40" width="80" height="20" as="geometry" />
        </mxCell>
        <mxCell id="cZ0vHt0oVeqG0NVhwaIE-170" value="Integrity" style="rounded=0;whiteSpace=wrap;html=1;strokeColor=none;fontSize=10;fillColor=none;" parent="cZ0vHt0oVeqG0NVhwaIE-168" vertex="1">
          <mxGeometry x="0.040000000000020464" y="60" width="80" height="20" as="geometry" />
        </mxCell>
        <mxCell id="cZ0vHt0oVeqG0NVhwaIE-171" value="Security" style="rounded=0;whiteSpace=wrap;html=1;fontStyle=1" parent="cZ0vHt0oVeqG0NVhwaIE-168" vertex="1">
          <mxGeometry width="80" height="34" as="geometry" />
        </mxCell>
        <mxCell id="cZ0vHt0oVeqG0NVhwaIE-172" value="Non-Repudiation" style="rounded=0;whiteSpace=wrap;html=1;strokeColor=none;fontSize=10;fillColor=none;" parent="_cMEJkciD_aqV913pfZD-1" vertex="1">
          <mxGeometry x="460.04" y="600" width="80" height="20" as="geometry" />
        </mxCell>
        <mxCell id="cZ0vHt0oVeqG0NVhwaIE-173" value="Accountability" style="rounded=0;whiteSpace=wrap;html=1;strokeColor=none;fontSize=10;fillColor=none;" parent="_cMEJkciD_aqV913pfZD-1" vertex="1">
          <mxGeometry x="460.04" y="620" width="80" height="20" as="geometry" />
        </mxCell>
        <mxCell id="cZ0vHt0oVeqG0NVhwaIE-174" value="Authenticity" style="rounded=0;whiteSpace=wrap;html=1;strokeColor=none;fontSize=10;fillColor=none;" parent="_cMEJkciD_aqV913pfZD-1" vertex="1">
          <mxGeometry x="460.04" y="640" width="80" height="20" as="geometry" />
        </mxCell>
        <mxCell id="cZ0vHt0oVeqG0NVhwaIE-176" value="" style="rounded=0;whiteSpace=wrap;html=1;container=1;recursiveResize=0;collapsible=0;" parent="_cMEJkciD_aqV913pfZD-1" vertex="1">
          <mxGeometry x="550" y="520" width="80" height="160" as="geometry" />
        </mxCell>
        <mxCell id="cZ0vHt0oVeqG0NVhwaIE-177" value="Modularity" style="rounded=0;whiteSpace=wrap;html=1;strokeColor=none;fontSize=10;fillColor=none;" parent="cZ0vHt0oVeqG0NVhwaIE-176" vertex="1">
          <mxGeometry x="0.040000000000020464" y="40" width="80" height="20" as="geometry" />
        </mxCell>
        <mxCell id="cZ0vHt0oVeqG0NVhwaIE-178" value="Reusability" style="rounded=0;whiteSpace=wrap;html=1;strokeColor=none;fontSize=10;fillColor=none;" parent="cZ0vHt0oVeqG0NVhwaIE-176" vertex="1">
          <mxGeometry x="0.040000000000020464" y="60" width="80" height="20" as="geometry" />
        </mxCell>
        <mxCell id="cZ0vHt0oVeqG0NVhwaIE-179" value="Maintainability" style="rounded=0;whiteSpace=wrap;html=1;fontStyle=1;fontSize=11;" parent="cZ0vHt0oVeqG0NVhwaIE-176" vertex="1">
          <mxGeometry width="80" height="34" as="geometry" />
        </mxCell>
        <mxCell id="cZ0vHt0oVeqG0NVhwaIE-180" value="Analysability" style="rounded=0;whiteSpace=wrap;html=1;strokeColor=none;fontSize=10;fillColor=none;" parent="_cMEJkciD_aqV913pfZD-1" vertex="1">
          <mxGeometry x="550.04" y="600" width="80" height="20" as="geometry" />
        </mxCell>
        <mxCell id="cZ0vHt0oVeqG0NVhwaIE-181" value="Modifiability" style="rounded=0;whiteSpace=wrap;html=1;strokeColor=none;fontSize=10;fillColor=none;" parent="_cMEJkciD_aqV913pfZD-1" vertex="1">
          <mxGeometry x="550.04" y="620" width="80" height="20" as="geometry" />
        </mxCell>
        <mxCell id="cZ0vHt0oVeqG0NVhwaIE-182" value="Testability" style="rounded=0;whiteSpace=wrap;html=1;strokeColor=none;fontSize=10;fillColor=none;" parent="_cMEJkciD_aqV913pfZD-1" vertex="1">
          <mxGeometry x="550.04" y="640" width="80" height="20" as="geometry" />
        </mxCell>
        <mxCell id="cZ0vHt0oVeqG0NVhwaIE-183" value="" style="rounded=0;whiteSpace=wrap;html=1;container=1;recursiveResize=0;collapsible=0;" parent="_cMEJkciD_aqV913pfZD-1" vertex="1">
          <mxGeometry x="640" y="520" width="80" height="160" as="geometry" />
        </mxCell>
        <mxCell id="cZ0vHt0oVeqG0NVhwaIE-184" value="Adaptability" style="rounded=0;whiteSpace=wrap;html=1;strokeColor=none;fontSize=10;fillColor=none;" parent="cZ0vHt0oVeqG0NVhwaIE-183" vertex="1">
          <mxGeometry x="0.040000000000020464" y="40" width="80" height="20" as="geometry" />
        </mxCell>
        <mxCell id="cZ0vHt0oVeqG0NVhwaIE-185" value="Installability" style="rounded=0;whiteSpace=wrap;html=1;strokeColor=none;fontSize=10;fillColor=none;" parent="cZ0vHt0oVeqG0NVhwaIE-183" vertex="1">
          <mxGeometry x="0.040000000000020464" y="60" width="80" height="20" as="geometry" />
        </mxCell>
        <mxCell id="cZ0vHt0oVeqG0NVhwaIE-186" value="Portability" style="rounded=0;whiteSpace=wrap;html=1;fontStyle=1" parent="cZ0vHt0oVeqG0NVhwaIE-183" vertex="1">
          <mxGeometry width="80" height="34" as="geometry" />
        </mxCell>
        <mxCell id="cZ0vHt0oVeqG0NVhwaIE-187" value="Replaceability" style="rounded=0;whiteSpace=wrap;html=1;strokeColor=none;fontSize=10;fillColor=none;" parent="_cMEJkciD_aqV913pfZD-1" vertex="1">
          <mxGeometry x="640.04" y="600" width="80" height="20" as="geometry" />
        </mxCell>
      </root>
    </mxGraphModel>
  </diagram>
</mxfile>
